<?xml version="1.0" encoding="UTF-8"?>
<svg id="Capa_1" data-name="Capa 1" xmlns="http://www.w3.org/2000/svg" viewBox="0 0 185.76 185.76">
  <defs>
    <style>
      .cls-1 {
        fill: #0057ff;
      }

      .cls-2 {
        fill: #fff;
      }
    </style>
  </defs>
  <rect class="cls-1" x="6.09" y="6.09" width="173.58" height="173.58" rx="8.47" ry="8.47"/>
  <g>
    <path class="cls-2" d="M79.92,121.68c2.64-.55,4.93-1.56,6.87-3.05,1.72-1.29,3.16-2.88,4.3-4.78,1.8-2.86,2.7-6.09,2.7-9.69s-.79-6.46-2.37-8.9c-1.58-2.45-3.92-4.23-7.02-5.36,2.04-1.04,3.59-2.2,4.64-3.46,1.87-2.25,2.81-5.24,2.81-8.95s-.93-6.69-2.79-9.28c-3.09-4.2-8.34-6.36-15.75-6.47h-29.37v60.77h27.39c3.09,0,5.95-.28,8.59-.83ZM56.07,72.28h13.22c2.91,0,5.3.31,7.18.95,2.18.91,3.27,2.77,3.27,5.61,0,2.56-.82,4.34-2.47,5.34-1.64,1-3.79,1.5-6.43,1.5h-14.77v-13.4ZM56.07,111.95v-16.2h14.96c2.61.03,4.63.37,6.08,1.03,2.58,1.18,3.87,3.35,3.87,6.51,0,3.74-1.33,6.27-3.99,7.59-1.47.72-3.52,1.07-6.15,1.07h-14.76Z"/>
    <g>
      <path class="cls-2" d="M104.09,118.5c4.57,3.69,9.85,5.53,15.83,5.53,7.25,0,12.88-2.18,16.91-6.56,2.59-2.75,4.04-5.46,4.36-8.12h-12c-.7,1.32-1.5,2.35-2.42,3.09-1.67,1.38-3.85,2.06-6.52,2.06-2.53,0-4.68-.56-6.48-1.69-2.95-1.81-4.52-4.98-4.7-9.49h32.73c.06-3.88-.07-6.85-.39-8.92-.55-3.52-1.74-6.62-3.58-9.29-2.04-3.03-4.63-5.25-7.77-6.65-3.13-1.4-6.65-2.1-10.57-2.1-6.58,0-11.94,2.08-16.07,6.23-4.13,4.15-6.19,10.12-6.19,17.91,0,8.31,2.29,14.31,6.86,17.99ZM112.48,88.62c1.66-1.71,4-2.57,7.01-2.57,2.77,0,5.1.81,6.97,2.42,1.87,1.62,2.92,3.99,3.13,7.1h-20.24c.43-2.92,1.47-5.24,3.13-6.95Z"/>
      <rect class="cls-2" x="105.52" y="65.22" width="26.41" height="6.13"/>
    </g>
  </g>
</svg>