<?xml version="1.0" encoding="UTF-8"?>
<svg id="Capa_1" data-name="Capa 1" xmlns="http://www.w3.org/2000/svg" viewBox="0 0 185.76 185.76">
  <defs>
    <style>
      .cls-1 {
        fill: #fff;
      }

      .cls-2 {
        fill: #117bb8;
      }
    </style>
  </defs>
  <rect class="cls-2" x="6.15" y="6.15" width="173.47" height="173.47" rx="8.47" ry="8.47"/>
  <g>
    <g>
      <rect class="cls-1" x="53.55" y="73.55" width="17.95" height="57.99"/>
      <path class="cls-1" d="M62.44,65.95c5.86,0,10.61-4.8,10.61-10.7s-4.75-10.7-10.61-10.7-10.61,4.79-10.61,10.7,4.75,10.7,10.61,10.7Z"/>
    </g>
    <path class="cls-1" d="M100.2,101.09c0-8.15,3.75-13.01,10.94-13.01,6.6,0,9.77,4.66,9.77,13.01v30.44h17.87v-36.72c0-15.53-8.8-23.04-21.1-23.04s-17.48,9.58-17.48,9.58v-7.81h-17.22v57.99h17.22v-30.44Z"/>
  </g>
</svg>