<?xml version="1.0" encoding="UTF-8"?>
<svg id="Capa_1" data-name="Capa 1" xmlns="http://www.w3.org/2000/svg" viewBox="0 0 185.76 185.76">
  <defs>
    <style>
      .cls-1 {
        fill: #1ec85a;
      }

      .cls-2 {
        fill: #fff;
        fill-rule: evenodd;
      }
    </style>
  </defs>
  <rect class="cls-1" x="6.15" y="6.15" width="173.47" height="173.47" rx="8.47" ry="8.47"/>
  <g>
    <path class="cls-2" d="M140.43,90.47c-.63-25.06-21.28-45.18-46.69-45.18s-45.57,19.66-46.66,44.33c-.02.68-.04,1.36-.04,2.03,0,8.77,2.45,16.95,6.69,23.95l-8.42,24.86,25.87-8.22c6.69,3.67,14.39,5.77,22.57,5.77,25.8,0,46.71-20.75,46.71-46.36,0-.39,0-.79-.02-1.18ZM93.74,130.62c-7.98,0-15.39-2.36-21.6-6.45l-15.09,4.81,4.9-14.48c-4.7-6.43-7.48-14.32-7.48-22.85,0-1.27.07-2.54.2-3.78,1.92-19.73,18.72-35.19,39.08-35.19s37.57,15.85,39.14,35.93c.09,1.01.13,2.01.13,3.04,0,21.5-17.62,38.97-39.27,38.97Z"/>
    <path class="cls-2" d="M115.15,101.01c-1.16-.57-6.78-3.32-7.83-3.7-1.05-.39-1.82-.57-2.58.57-.77,1.14-2.97,3.7-3.63,4.44-.68.77-1.33.85-2.49.28-1.14-.57-4.83-1.75-9.21-5.64-3.39-3-5.71-6.71-6.36-7.85-.66-1.14-.07-1.75.5-2.32.52-.52,1.14-1.33,1.73-1.99.15-.2.28-.37.42-.55.26-.42.46-.81.72-1.36.39-.76.2-1.42-.09-1.99-.28-.57-2.58-6.17-3.54-8.44-.94-2.27-1.9-1.88-2.58-1.88s-1.42-.11-2.19-.11-2.01.28-3.06,1.42c-1.05,1.14-4,3.89-4,9.49,0,1.31.24,2.62.59,3.87,1.16,4,3.65,7.3,4.09,7.87.57.74,7.92,12.59,19.55,17.17,11.66,4.53,11.66,3.02,13.75,2.82,2.1-.18,6.78-2.73,7.72-5.4.96-2.65.96-4.92.68-5.4-.28-.46-1.05-.74-2.19-1.31Z"/>
  </g>
</svg>